<?xml version="1.0" encoding="utf-8"?>
<!-- Generator: Adobe Illustrator 25.4.1, SVG Export Plug-In . SVG Version: 6.00 Build 0)  -->
<svg version="1.1" id="Layer_1" xmlns="http://www.w3.org/2000/svg" xmlns:xlink="http://www.w3.org/1999/xlink" x="0px" y="0px"
	 viewBox="0 0 500 250" style="enable-background:new 0 0 500 250;" xml:space="preserve">
<style type="text/css">
	.st0{fill:none;}
	.st1{fill:#00A651;}
	.st2{font-family:'FranklinGothic-Medium';}
	.st3{font-size:55px;}
	.st4{fill:none;stroke:#00A651;stroke-width:7;stroke-linecap:round;stroke-miterlimit:10;}
	.st5{fill:none;stroke:#00A651;stroke-width:7;stroke-miterlimit:10;}
</style>
<g>
	<rect x="195.9" y="134.9" class="st0" width="285.1" height="37.1"/>
	<text transform="matrix(1 0 0 1 195.9199 171.5918)" class="st1 st2 st3">HOMEPAGE</text>
</g>
<g>
	<path class="st4" d="M66.1,109.9l65.8-54.4c0.6-0.5,1.5-0.5,2.1,0l57.6,52"/>
	<path class="st1" d="M153,61l12,10l-1.7-17.8c-0.2-1.8-1.7-3.2-3.6-3.2h-3.2c-2,0-3.6,1.6-3.6,3.6V61z"/>
	<path class="st1" d="M130.1,71.7L71,120.6v69h41.2h1.8v-20.4c0-5.1,4.1-9.2,9.2-9.2h6.8c5.1,0,9.2,4.1,9.2,9.2v20.4h47.6V118
		l-52.1-46.3C133.4,70.6,131.5,70.6,130.1,71.7z"/>
	<path class="st5" d="M232.4,123.1c-0.1-1.8-0.2-3.6-0.4-5.3c-5.3-49.6-47.4-88.3-98.4-88.3c-54.7,0-99,44.3-99,99
		c0,54.7,44.3,99,99,99c35.9,0,67.4-19.1,84.7-47.8"/>
</g>
</svg>
